<svg width="592" height="883" viewBox="0 0 592 883" fill="none" xmlns="http://www.w3.org/2000/svg">
<g clip-path="url(#clip0_4:124)">
<path d="M0.931232 665.129L0 667.517L517.072 868.869L518.003 866.482L0.931232 665.129Z" fill="#CACACA"/>
<path d="M370.407 0.393149L82.9945 76.0998C81.845 76.425 80.7835 77.0044 79.8886 77.7951C78.8899 78.6691 78.0379 79.6973 77.365 80.8407C76.6258 82.079 76.0555 83.4105 75.6693 84.7999C75.26 86.2551 75.0505 87.7591 75.0465 89.2707V515.301C75.0474 516.788 75.257 518.268 75.6693 519.698C76.0484 521.029 76.6196 522.298 77.365 523.464C78.0341 524.526 78.8889 525.458 79.8886 526.217C80.7984 526.91 81.8651 527.369 82.9945 527.552L370.407 569.836C372.074 570.091 373.778 569.96 375.386 569.453C376.916 568.962 378.314 568.129 379.474 567.017C380.677 565.857 381.622 564.457 382.246 562.906C382.932 561.196 383.279 559.369 383.269 557.526V11.2109C383.287 9.40554 382.939 7.61519 382.246 5.94819C381.633 4.48543 380.683 3.18775 379.474 2.16057C378.297 1.17509 376.891 0.500388 375.386 0.198226C373.733 -0.120755 372.03 -0.0540426 370.407 0.393149Z" fill="#F2F2F2"/>
<path d="M90.0789 88.0545C89.2674 88.2926 88.5194 88.7088 87.8895 89.2727C87.1887 89.8895 86.5912 90.6144 86.1197 91.4198C85.6029 92.2959 85.2068 93.2377 84.9422 94.2197C84.6627 95.2451 84.526 96.3041 84.5358 97.3668V506.104C84.5242 507.15 84.661 508.192 84.9422 509.2C85.2017 510.139 85.5977 511.035 86.1176 511.859C86.5855 512.61 87.1847 513.27 87.8865 513.809C88.527 514.302 89.2787 514.632 90.0759 514.768L359.296 551.01C360.443 551.149 361.606 551.022 362.695 550.637C363.74 550.261 364.686 549.655 365.464 548.863C366.274 548.034 366.904 547.046 367.314 545.962C367.765 544.768 367.984 543.498 367.959 542.221V28.2831C367.989 27.0302 367.769 25.7839 367.314 24.6163C366.912 23.5911 366.279 22.6722 365.464 21.9312C364.676 21.2243 363.725 20.725 362.695 20.4785C361.576 20.2206 360.412 20.2285 359.296 20.5018L90.0789 88.0545Z" fill="white"/>
<path d="M101.467 104.396C100.913 104.539 100.403 104.818 99.9837 105.208C99.4994 105.653 99.0919 106.176 98.7778 106.754C98.4192 107.403 98.146 108.096 97.965 108.816C97.7651 109.586 97.6627 110.379 97.6602 111.175V168.104C97.6558 168.859 97.7563 169.61 97.9589 170.337C98.1275 170.957 98.4026 171.543 98.7717 172.068C99.0817 172.515 99.4974 172.877 99.9817 173.124C100.441 173.349 100.961 173.423 101.465 173.333L342.094 131.927C342.888 131.782 343.64 131.459 344.292 130.983C344.995 130.473 345.604 129.845 346.093 129.127C346.622 128.358 347.033 127.515 347.312 126.624C347.608 125.691 347.759 124.719 347.76 123.741V54.033C347.769 53.1134 347.617 52.1994 347.312 51.3316C347.052 50.5838 346.636 49.8993 346.093 49.3226C345.593 48.7862 344.958 48.394 344.255 48.1868C343.552 47.9796 342.805 47.9652 342.094 48.145L101.467 104.396Z" fill="#F2F2F2"/>
<path d="M101.467 201.045C100.92 201.145 100.405 201.375 99.9654 201.715C99.4828 202.086 99.07 202.539 98.7462 203.053C98.3881 203.616 98.1142 204.228 97.9334 204.87C97.7424 205.555 97.65 206.263 97.6591 206.974V328.652C97.6501 329.347 97.7453 330.04 97.9416 330.708C98.117 331.307 98.3918 331.873 98.7544 332.382C99.0765 332.839 99.4921 333.222 99.9735 333.506C100.428 333.774 100.947 333.914 101.474 333.913L342.1 327.058C342.877 327.021 343.636 326.813 344.323 326.449C345.016 326.081 345.63 325.582 346.133 324.98C346.658 324.352 347.068 323.636 347.342 322.865C347.632 322.051 347.776 321.192 347.765 320.327V171.336C347.781 170.494 347.637 169.657 347.342 168.868C347.075 168.158 346.663 167.51 346.133 166.967C345.626 166.45 345.007 166.056 344.323 165.816C343.607 165.569 342.843 165.494 342.093 165.598L101.467 201.045Z" fill="#F2F2F2"/>
<path d="M122.55 107.692L312.208 64.7288V79.2458L122.55 120.14V107.692Z" fill="white"/>
<path d="M122.881 133.855L312.658 95.2338V101.978L122.881 139.636V133.855Z" fill="white"/>
<path d="M122.881 144.083L312.658 107.165V113.909L122.881 149.864V144.083Z" fill="white"/>
<path d="M122.881 154.311L312.658 119.096V125.84L122.881 160.092V154.311Z" fill="white"/>
<path d="M228.106 330.545L324.346 327.823C324.681 327.813 325.012 327.747 325.325 327.628C325.642 327.507 325.938 327.338 326.203 327.127C326.479 326.908 326.722 326.65 326.925 326.363C327.138 326.058 327.309 325.726 327.433 325.376C327.687 324.667 327.753 323.903 327.624 323.161C327.562 322.803 327.452 322.454 327.298 322.125C327.145 321.801 326.947 321.501 326.707 321.234L263.264 250.956C262.988 250.644 262.644 250.401 262.259 250.245C261.896 250.102 261.506 250.046 261.118 250.083C260.716 250.121 260.327 250.247 259.979 250.451C259.591 250.679 259.252 250.98 258.979 251.337L244.219 270.396C243.664 271.127 242.97 271.74 242.176 272.2C241.467 272.61 240.676 272.856 239.859 272.922C239.071 272.982 238.28 272.852 237.551 272.545C236.771 272.21 236.079 271.7 235.528 271.055L192.027 221.109C191.785 220.825 191.477 220.604 191.131 220.464C190.808 220.337 190.459 220.293 190.115 220.335C189.753 220.382 189.405 220.509 189.099 220.708C188.75 220.935 188.447 221.227 188.207 221.567L111.78 327.918C111.609 328.159 111.469 328.42 111.364 328.697C111.254 328.982 111.178 329.279 111.134 329.582C111.089 329.89 111.078 330.203 111.1 330.514C111.121 330.824 111.178 331.13 111.269 331.427C111.355 331.71 111.476 331.98 111.63 332.231C111.768 332.458 111.94 332.664 112.138 332.841C112.321 333.004 112.531 333.133 112.759 333.223C112.98 333.31 113.216 333.351 113.454 333.344L228.219 330.052L228.106 330.545Z" fill="white"/>
<path d="M130.201 213.819C131.444 213.652 132.709 213.827 133.858 214.327C135.029 214.847 136.061 215.635 136.871 216.627C137.776 217.74 138.465 219.012 138.903 220.377C139.409 221.935 139.661 223.564 139.652 225.202C139.652 226.898 139.4 228.585 138.903 230.207C138.447 231.718 137.761 233.15 136.871 234.453C136.065 235.642 135.045 236.671 133.864 237.489C132.776 238.244 131.52 238.722 130.206 238.882C128.963 239.024 127.705 238.824 126.568 238.303C125.415 237.762 124.404 236.96 123.613 235.962C122.728 234.852 122.054 233.588 121.625 232.235C121.135 230.698 120.89 229.094 120.9 227.482C120.899 225.812 121.144 224.151 121.625 222.552C122.07 221.057 122.739 219.638 123.608 218.342C124.399 217.152 125.4 216.115 126.563 215.283C127.64 214.51 128.888 214.008 130.201 213.819Z" fill="white"/>
<path d="M101.467 362.492C100.935 362.507 100.417 362.663 99.9654 362.944C99.4851 363.244 99.0715 363.64 98.7503 364.106C98.3885 364.624 98.114 365.198 97.9375 365.805C97.7429 366.476 97.6491 367.173 97.6591 367.871V489.549C97.652 490.258 97.7472 490.964 97.9416 491.646C98.1215 492.281 98.3954 492.884 98.7544 493.437C99.0777 493.941 99.491 494.382 99.9735 494.737C100.415 495.064 100.93 495.277 101.474 495.359L342.093 523.247C342.847 523.325 343.608 523.226 344.316 522.958C345.002 522.695 345.62 522.282 346.126 521.75C346.656 521.192 347.067 520.532 347.335 519.81C347.629 519.017 347.773 518.175 347.758 517.329V368.344C347.77 367.483 347.627 366.626 347.335 365.815C347.062 365.056 346.652 364.352 346.126 363.739C345.623 363.153 345.008 362.673 344.316 362.327C343.625 361.984 342.865 361.799 342.093 361.787L101.467 362.492Z" fill="#F2F2F2"/>
<path d="M228.106 510.278L324.342 521.451C324.669 521.49 325.001 521.472 325.321 521.397C325.633 521.324 325.93 521.197 326.198 521.023C326.473 520.843 326.717 520.62 326.92 520.362C327.135 520.085 327.306 519.777 327.428 519.448C327.557 519.103 327.638 518.742 327.668 518.375C327.699 518.002 327.682 517.627 327.619 517.258C327.555 516.885 327.445 516.521 327.292 516.175C327.139 515.826 326.94 515.497 326.702 515.198L263.264 435.764C262.989 435.416 262.647 435.126 262.258 434.912C261.906 434.72 261.517 434.609 261.117 434.585C260.726 434.564 260.337 434.633 259.978 434.788C259.593 434.958 259.252 435.211 258.978 435.53L244.219 452.454C243.662 453.106 242.963 453.622 242.176 453.963C241.445 454.274 240.651 454.407 239.859 454.351C239.047 454.289 238.258 454.046 237.551 453.64C236.765 453.187 236.078 452.581 235.529 451.859L192.027 395.627C191.786 395.309 191.48 395.045 191.13 394.853C190.818 394.682 190.47 394.588 190.114 394.577C189.762 394.57 189.414 394.647 189.098 394.804C188.749 394.978 188.443 395.227 188.201 395.533L111.78 490.858C111.608 491.076 111.467 491.318 111.364 491.576C111.253 491.85 111.176 492.136 111.134 492.428C111.089 492.735 111.078 493.046 111.1 493.355C111.122 493.674 111.178 493.99 111.268 494.297C111.355 494.595 111.476 494.883 111.629 495.154C111.768 495.402 111.939 495.632 112.137 495.837C112.318 496.025 112.528 496.184 112.758 496.309C112.973 496.426 113.209 496.501 113.453 496.53L228.22 509.806L228.106 510.278Z" fill="white"/>
<path d="M130.201 379.415C131.489 379.438 132.749 379.793 133.858 380.446C135.037 381.145 136.061 382.078 136.866 383.187C137.762 384.414 138.449 385.78 138.898 387.232C139.398 388.828 139.651 390.491 139.646 392.163C139.652 393.825 139.4 395.477 138.898 397.062C138.452 398.485 137.765 399.822 136.866 401.013C136.06 402.084 135.035 402.971 133.858 403.614C132.737 404.22 131.475 404.518 130.201 404.478C128.914 404.427 127.661 404.047 126.563 403.374C125.402 402.659 124.397 401.717 123.608 400.607C122.733 399.385 122.063 398.029 121.625 396.591C121.14 395.018 120.896 393.38 120.9 391.734C120.894 390.098 121.138 388.471 121.625 386.909C122.06 385.498 122.73 384.172 123.608 382.985C124.397 381.91 125.404 381.013 126.563 380.353C127.672 379.727 128.927 379.404 130.201 379.415Z" fill="white"/>
<path d="M169.339 159.806C168.434 159.975 167.578 160.347 166.837 160.894C166.041 161.482 165.354 162.203 164.805 163.026C164.209 163.91 163.747 164.878 163.436 165.897C163.102 166.968 162.931 168.084 162.928 169.206V629.53C162.937 631.761 163.587 633.942 164.801 635.814C165.351 636.669 166.037 637.429 166.833 638.062C167.568 638.65 168.422 639.071 169.336 639.295L510.661 718.014C512.028 718.343 513.449 718.382 514.832 718.128C516.076 717.894 517.249 717.373 518.256 716.605C519.249 715.837 520.044 714.842 520.574 713.704C521.15 712.446 521.442 711.077 521.428 709.694V109.469C521.439 108.069 521.148 106.684 520.574 105.408C520.041 104.235 519.248 103.197 518.256 102.375C517.258 101.553 516.088 100.966 514.833 100.656C513.467 100.324 512.046 100.282 510.662 100.532L169.339 159.806Z" fill="#E6E6E6"/>
<path d="M177.22 171.484C176.297 171.664 175.425 172.051 174.672 172.616C173.865 173.217 173.169 173.955 172.615 174.795C172.016 175.694 171.556 176.678 171.248 177.714C170.922 178.802 170.762 179.934 170.773 181.07V621.821C170.757 624.083 171.397 626.3 172.615 628.207C173.17 629.082 173.865 629.86 174.672 630.51C175.419 631.116 176.288 631.554 177.22 631.794L496.62 702.964C497.976 703.256 499.379 703.256 500.734 702.964C501.963 702.699 503.111 702.145 504.083 701.348C505.055 700.55 505.822 699.533 506.322 698.381C506.871 697.106 507.138 695.728 507.103 694.341V128.757C507.134 127.355 506.868 125.963 506.322 124.671C505.82 123.485 505.056 122.426 504.089 121.575C503.122 120.723 501.975 120.1 500.734 119.751C499.396 119.38 497.993 119.297 496.62 119.508L177.22 171.484Z" fill="white"/>
<path d="M217.999 231.511C217.568 231.562 217.155 231.711 216.792 231.946C216.409 232.194 216.076 232.51 215.808 232.878C215.519 233.272 215.295 233.709 215.145 234.174C214.984 234.665 214.901 235.179 214.901 235.696V253.342C214.899 253.844 214.981 254.342 215.145 254.816C215.291 255.241 215.516 255.635 215.807 255.977C216.076 256.293 216.412 256.545 216.791 256.715C217.17 256.881 217.585 256.949 217.998 256.912L433.133 237.947C433.718 237.892 434.285 237.72 434.801 237.439C435.318 237.16 435.78 236.79 436.166 236.347C436.559 235.897 436.871 235.382 437.088 234.824C437.311 234.254 437.428 233.646 437.431 233.034V212.194C437.433 211.602 437.318 211.015 437.091 210.468C436.88 209.961 436.566 209.504 436.169 209.125C435.779 208.755 435.313 208.474 434.804 208.301C434.267 208.12 433.696 208.058 433.133 208.121L217.999 231.511Z" fill="#2196F3"/>
<path d="M216.835 290.132C216.728 290.139 216.623 290.171 216.531 290.227C216.435 290.284 216.352 290.359 216.285 290.448C216.213 290.543 216.157 290.65 216.119 290.764C216.079 290.885 216.058 291.013 216.058 291.141V298.036C216.058 298.162 216.078 298.288 216.119 298.407C216.156 298.515 216.212 298.615 216.285 298.703C216.352 298.784 216.436 298.85 216.531 298.896C216.626 298.941 216.73 298.962 216.835 298.956L435.817 287.096C435.963 287.088 436.105 287.05 436.236 286.984C436.365 286.919 436.481 286.83 436.577 286.722C436.78 286.497 436.892 286.205 436.892 285.903V277.774C436.893 277.625 436.864 277.477 436.808 277.338C436.755 277.208 436.676 277.091 436.577 276.992C436.478 276.893 436.359 276.816 436.228 276.767C436.097 276.717 435.957 276.696 435.817 276.705L216.835 290.132Z" fill="#CCCCCC"/>
<path d="M216.835 312.558C216.728 312.563 216.624 312.594 216.531 312.648C216.435 312.703 216.352 312.777 216.285 312.865C216.212 312.959 216.156 313.065 216.119 313.178C216.079 313.299 216.058 313.426 216.058 313.554V320.449C216.058 320.576 216.078 320.702 216.119 320.822C216.155 320.933 216.212 321.036 216.285 321.126C216.352 321.209 216.436 321.276 216.531 321.323C216.625 321.37 216.73 321.393 216.835 321.388L435.817 313.505C435.962 313.5 436.105 313.465 436.236 313.403C436.365 313.34 436.481 313.253 436.577 313.147C436.78 312.925 436.892 312.635 436.892 312.335V304.201C436.893 304.052 436.864 303.903 436.808 303.764C436.755 303.633 436.676 303.514 436.577 303.414C436.48 303.315 436.364 303.237 436.236 303.185C436.103 303.132 435.96 303.108 435.817 303.114L216.835 312.558Z" fill="#CCCCCC"/>
<path d="M216.835 334.986C216.729 334.988 216.624 335.017 216.531 335.069C216.436 335.123 216.354 335.195 216.288 335.281C216.215 335.374 216.159 335.479 216.122 335.591C216.082 335.712 216.061 335.839 216.061 335.966V342.861C216.061 342.988 216.081 343.115 216.122 343.235C216.159 343.345 216.215 343.449 216.288 343.54C216.355 343.624 216.438 343.693 216.534 343.743C216.628 343.791 216.733 343.816 216.838 343.814L435.817 339.913C435.962 339.909 436.105 339.875 436.236 339.812C436.365 339.752 436.48 339.667 436.577 339.563C436.676 339.457 436.754 339.333 436.808 339.199C436.864 339.058 436.892 338.908 436.892 338.756V330.629C436.893 330.479 436.864 330.33 436.808 330.19C436.754 330.058 436.676 329.938 436.577 329.836C436.481 329.734 436.365 329.652 436.236 329.596C436.103 329.542 435.96 329.516 435.817 329.521L216.835 334.986Z" fill="#CCCCCC"/>
<path d="M216.448 379.778C216.342 379.777 216.238 379.801 216.143 379.85C216.048 379.9 215.965 379.969 215.898 380.053C215.826 380.144 215.771 380.248 215.735 380.358C215.694 380.478 215.674 380.604 215.674 380.73V387.623C215.674 387.751 215.694 387.878 215.735 387.999C215.773 388.109 215.829 388.212 215.901 388.304C215.968 388.39 216.051 388.462 216.147 388.515C216.24 388.566 216.345 388.594 216.451 388.596L435.284 392.648C435.427 392.651 435.569 392.623 435.701 392.567C435.83 392.512 435.946 392.432 436.043 392.331C436.142 392.228 436.22 392.107 436.273 391.974C436.329 391.835 436.358 391.685 436.358 391.535V383.41C436.358 383.259 436.329 383.109 436.273 382.968C436.22 382.833 436.142 382.71 436.043 382.604C435.946 382.501 435.83 382.417 435.701 382.358C435.57 382.297 435.428 382.265 435.284 382.263L216.448 379.778Z" fill="#CCCCCC"/>
<path d="M216.448 402.198C216.343 402.195 216.238 402.218 216.143 402.265C216.048 402.315 215.964 402.384 215.898 402.468C215.825 402.559 215.768 402.662 215.732 402.773C215.693 402.89 215.674 403.013 215.674 403.136V410.029C215.674 410.157 215.695 410.285 215.735 410.406C215.772 410.518 215.828 410.624 215.901 410.718C215.968 410.805 216.051 410.878 216.147 410.933C216.24 410.986 216.344 411.016 216.451 411.02L435.284 419.051C435.427 419.057 435.569 419.031 435.701 418.977C435.83 418.924 435.946 418.846 436.043 418.747C436.142 418.645 436.22 418.526 436.273 418.394C436.33 418.255 436.358 418.106 436.358 417.956V409.829C436.358 409.678 436.329 409.527 436.273 409.386C436.22 409.25 436.141 409.126 436.043 409.018C435.946 408.913 435.83 408.827 435.701 408.766C435.571 408.703 435.428 408.668 435.284 408.664L216.448 402.198Z" fill="#CCCCCC"/>
<path d="M216.448 424.616C216.344 424.613 216.24 424.635 216.147 424.681C216.052 424.727 215.968 424.793 215.901 424.873C215.828 424.962 215.772 425.062 215.735 425.171C215.694 425.29 215.674 425.415 215.674 425.541V432.434C215.674 432.563 215.695 432.69 215.735 432.812C215.772 432.925 215.828 433.032 215.901 433.127C215.968 433.215 216.051 433.289 216.147 433.346C216.239 433.401 216.344 433.432 216.451 433.438L435.284 445.448C435.424 445.456 435.564 445.434 435.694 445.384C435.825 445.334 435.944 445.257 436.043 445.157C436.142 445.058 436.22 444.939 436.273 444.809C436.33 444.671 436.358 444.522 436.358 444.373V436.246C436.356 435.946 436.244 435.657 436.043 435.434C435.946 435.327 435.83 435.239 435.701 435.175C435.571 435.11 435.429 435.073 435.284 435.066L216.448 424.616Z" fill="#CCCCCC"/>
<path d="M216.448 447.147C216.344 447.14 216.239 447.159 216.143 447.203C216.05 447.248 215.967 447.313 215.901 447.394C215.828 447.481 215.772 447.581 215.735 447.688C215.694 447.807 215.674 447.933 215.674 448.059V454.952C215.674 455.081 215.695 455.208 215.735 455.331C215.772 455.445 215.828 455.552 215.901 455.648C215.968 455.738 216.051 455.814 216.147 455.873C216.239 455.93 216.343 455.965 216.451 455.974L435.28 471.978C435.421 471.989 435.564 471.969 435.697 471.92C435.825 471.872 435.941 471.797 436.039 471.701C436.138 471.604 436.216 471.487 436.269 471.358C436.326 471.22 436.354 471.072 436.354 470.923V462.795C436.353 462.642 436.325 462.491 436.269 462.348C436.215 462.211 436.137 462.083 436.039 461.973C435.942 461.864 435.826 461.774 435.697 461.707C435.567 461.64 435.425 461.6 435.28 461.59L216.448 447.147Z" fill="#CCCCCC"/>
<path d="M216.448 469.566C216.344 469.557 216.239 469.574 216.143 469.617C216.05 469.661 215.967 469.726 215.901 469.806C215.828 469.891 215.772 469.989 215.735 470.094C215.694 470.213 215.674 470.337 215.674 470.463V477.356C215.674 477.485 215.695 477.613 215.735 477.735C215.773 477.851 215.829 477.959 215.901 478.056C215.968 478.147 216.051 478.224 216.147 478.285C216.239 478.342 216.343 478.377 216.451 478.386L435.28 498.375C435.421 498.388 435.563 498.371 435.697 498.324C435.825 498.279 435.941 498.206 436.039 498.112C436.138 498.016 436.216 497.9 436.269 497.773C436.326 497.635 436.354 497.488 436.354 497.339V489.212C436.353 489.058 436.325 488.906 436.269 488.763C436.215 488.624 436.137 488.496 436.039 488.384C435.942 488.273 435.827 488.181 435.697 488.111C435.568 488.042 435.426 488 435.28 487.987L216.448 469.566Z" fill="#CCCCCC"/>
<path d="M216.448 491.985C216.345 491.974 216.24 491.989 216.143 492.03C216.05 492.071 215.967 492.133 215.901 492.211C215.828 492.296 215.771 492.394 215.735 492.5C215.694 492.619 215.673 492.743 215.674 492.869V499.762C215.674 499.891 215.695 500.019 215.735 500.142C215.773 500.258 215.829 500.368 215.901 500.466C215.968 500.558 216.051 500.638 216.147 500.7C216.238 500.759 216.343 500.796 216.451 500.808L435.28 524.773C435.42 524.789 435.563 524.774 435.697 524.729C435.824 524.687 435.941 524.617 436.039 524.526C436.138 524.431 436.217 524.317 436.269 524.191C436.326 524.054 436.354 523.907 436.354 523.758V515.629C436.353 515.475 436.325 515.323 436.269 515.179C436.215 515.039 436.137 514.909 436.039 514.795C435.942 514.683 435.827 514.589 435.697 514.517C435.568 514.446 435.426 514.401 435.28 514.385L216.448 491.985Z" fill="#CCCCCC"/>
<path d="M216.448 514.517C216.345 514.504 216.24 514.518 216.143 514.557C216.051 514.595 215.968 514.654 215.901 514.728C215.827 514.813 215.771 514.912 215.735 515.019C215.694 515.137 215.673 515.261 215.674 515.385V522.278C215.674 522.408 215.695 522.537 215.735 522.66C215.773 522.777 215.829 522.887 215.901 522.987C215.968 523.08 216.051 523.161 216.147 523.224C216.238 523.285 216.342 523.325 216.451 523.339L435.28 551.303C435.42 551.322 435.562 551.31 435.697 551.268C435.825 551.226 435.941 551.157 436.039 551.065C436.138 550.972 436.217 550.859 436.269 550.734C436.326 550.597 436.355 550.451 436.354 550.303V542.179C436.353 542.024 436.325 541.871 436.269 541.727C436.215 541.586 436.137 541.455 436.039 541.339C435.942 541.225 435.827 541.129 435.697 541.055C435.569 540.981 435.427 540.933 435.28 540.915L216.448 514.517Z" fill="#CCCCCC"/>
<path d="M216.448 536.936C216.345 536.921 216.24 536.933 216.143 536.971C216.05 537.009 215.967 537.067 215.901 537.142C215.828 537.225 215.771 537.321 215.735 537.425C215.694 537.542 215.673 537.666 215.674 537.79V544.683C215.674 544.813 215.695 544.942 215.735 545.066C215.773 545.184 215.829 545.295 215.901 545.396C215.968 545.49 216.051 545.572 216.147 545.637C216.238 545.7 216.342 545.741 216.451 545.757L435.28 577.701C435.419 577.722 435.562 577.712 435.697 577.672C435.824 577.634 435.941 577.568 436.039 577.479C436.138 577.388 436.217 577.277 436.269 577.153C436.326 577.017 436.355 576.87 436.354 576.723V568.596C436.353 568.441 436.325 568.287 436.269 568.143C436.215 568 436.137 567.868 436.039 567.751C435.942 567.635 435.827 567.537 435.697 567.461C435.569 567.385 435.427 567.335 435.28 567.313L216.448 536.936Z" fill="#CCCCCC"/>
<path d="M216.448 559.356C216.346 559.338 216.241 559.348 216.144 559.384C216.05 559.42 215.967 559.477 215.901 559.551C215.827 559.633 215.771 559.727 215.735 559.831C215.694 559.948 215.673 560.071 215.674 560.195V567.088C215.674 567.219 215.695 567.349 215.735 567.473C215.773 567.592 215.829 567.704 215.901 567.806C215.968 567.902 216.051 567.985 216.147 568.052C216.238 568.116 216.342 568.159 216.451 568.177L435.28 604.098C435.419 604.122 435.561 604.115 435.697 604.078C435.824 604.042 435.941 603.979 436.039 603.891C436.138 603.802 436.217 603.692 436.269 603.568C436.326 603.433 436.355 603.288 436.354 603.141V595.013C436.353 594.857 436.325 594.703 436.269 594.558C436.215 594.414 436.137 594.28 436.039 594.161C435.942 594.044 435.827 593.943 435.697 593.864C435.569 593.786 435.428 593.733 435.28 593.709L216.448 559.356Z" fill="#CCCCCC"/>
<path d="M501.216 592.63C513.229 594.497 524.789 598.581 535.308 604.673C557.419 617.474 574.697 637.194 584.47 660.788C589.357 672.538 591.913 685.125 591.995 697.85C592.126 709.595 589.551 721.213 584.47 731.805C579.824 741.346 572.897 749.596 564.302 755.826C555.701 761.985 545.767 766.027 535.308 767.623C523.927 769.324 512.316 768.632 501.219 765.592C489.536 762.456 478.494 757.298 468.596 750.35C458.859 743.551 450.219 735.304 442.977 725.895C435.869 716.72 430.21 706.51 426.197 695.622C422.25 684.978 420.2 673.725 420.141 662.373C420.046 651.819 422.107 641.357 426.197 631.626C429.993 622.625 435.779 614.601 443.122 608.154C450.465 601.707 459.174 597.006 468.596 594.403C479.219 591.5 490.34 590.896 501.216 592.63Z" fill="#2196F3"/>
<path d="M493.1 713.745L468.156 675.441L482.56 666.88L494.497 684.97L536.265 649.074L550.755 665.261L493.1 713.745Z" fill="white"/>
<path d="M310.978 669.11L306.469 606.683L314.567 548.183L291.57 546.632L287.031 611.253L299.86 672.022C298.767 673.531 298.168 675.341 298.144 677.203C298.12 679.066 298.672 680.891 299.725 682.428C300.779 683.965 302.281 685.139 304.028 685.79C305.775 686.441 307.68 686.537 309.483 686.065C311.287 685.593 312.9 684.575 314.103 683.152C315.306 681.729 316.039 679.969 316.202 678.113C316.366 676.257 315.952 674.397 315.017 672.785C314.081 671.174 312.671 669.89 310.978 669.11Z" fill="#9F616A"/>
<path d="M288.636 555.04L294.036 531.688C295.07 527.216 297.776 523.309 301.601 520.767C305.425 518.224 310.077 517.24 314.605 518.014C319.132 518.789 323.191 521.264 325.951 524.933C328.711 528.602 329.962 533.187 329.448 537.747L326.474 564.134L288.636 555.04Z" fill="#CBCBCB"/>
<path d="M331.209 872.5L342.051 872.498L347.207 830.715L331.208 830.716L331.209 872.5Z" fill="#9F616A"/>
<path d="M328.443 868.963L349.794 868.962H349.795C353.403 868.962 356.864 870.394 359.415 872.944C361.967 875.493 363.401 878.951 363.401 882.557V882.999L328.444 883L328.443 868.963Z" fill="#2F2E41"/>
<path d="M385.22 872.145L395.642 869.161L389.086 827.574L373.704 831.977L385.22 872.145Z" fill="#9F616A"/>
<path d="M381.587 869.505L402.112 863.63L402.112 863.63C405.581 862.638 409.303 863.062 412.459 864.811C415.614 866.56 417.945 869.49 418.939 872.956L419.061 873.381L385.455 883L381.587 869.505Z" fill="#2F2E41"/>
<path d="M325.349 857.334L330.392 730.762L317.295 673.483C299.671 643.956 318.685 596.858 318.879 596.386L318.95 596.214L319.134 596.188L365.238 589.947L365.885 591.432C383.918 632.627 388.923 678.344 380.228 722.461L375.43 746.984L399.145 842.659L376.701 853.872L359.48 809.252L347.84 854.904L325.349 857.334Z" fill="#2F2E41"/>
<path d="M312.807 608.125L297.766 564.09C288.416 547.636 294.347 533.029 300.969 523.673C308.12 513.57 308.549 507.904 308.644 507.841L308.721 507.791L328.481 507.192L346.77 525.761C347.921 525.312 357.638 549.24 356.814 550.443L369.587 591.701L312.807 608.125Z" fill="#CBCBCB"/>
<path d="M434.592 615.741L385.045 577.446L346.837 532.389L330.337 548.47L375.483 594.963L429.344 625.959C429.74 627.779 430.689 629.432 432.062 630.693C433.434 631.954 435.163 632.76 437.012 633.001C438.86 633.243 440.738 632.908 442.389 632.042C444.04 631.176 445.383 629.822 446.234 628.165C447.085 626.507 447.403 624.628 447.144 622.783C446.886 620.938 446.063 619.218 444.789 617.859C443.514 616.499 441.851 615.566 440.026 615.187C438.2 614.807 436.303 615.001 434.592 615.741Z" fill="#9F616A"/>
<path d="M325.649 564.763L311.843 545.164C309.199 541.411 308.092 536.789 308.748 532.247C309.405 527.704 311.775 523.585 315.373 520.732C318.971 517.879 323.525 516.509 328.101 516.903C332.677 517.296 336.93 519.424 339.987 522.849L357.673 542.667L325.649 564.763Z" fill="#CBCBCB"/>
<path d="M316.277 501.793C329.237 501.793 339.743 491.295 339.743 478.346C339.743 465.396 329.237 454.898 316.277 454.898C303.317 454.898 292.811 465.396 292.811 478.346C292.811 491.295 303.317 501.793 316.277 501.793Z" fill="#9F616A"/>
<path d="M340.137 466.45H302.876V450.221C311.054 446.974 319.057 444.213 323.895 450.221C328.203 450.221 332.334 451.931 335.38 454.974C338.426 458.018 340.137 462.146 340.137 466.45V466.45Z" fill="#2F2E41"/>
<path d="M308.011 446.329C273.872 445.398 280.336 501.597 280.336 501.597C280.336 501.597 286.778 502.448 289.717 502.948L293.266 500.951L297.085 503.454C298.839 503.462 300.681 503.428 302.591 503.393L304.342 499.791L308.246 503.328C315.353 503.339 334.64 503.535 334.64 503.535C334.64 503.535 346.264 447.373 308.011 446.329Z" fill="#2F2E41"/>
<path d="M170.458 542.618C170.593 541.519 170.485 540.404 170.142 539.351C169.799 538.298 169.229 537.333 168.472 536.524C167.715 535.716 166.79 535.082 165.762 534.669C164.734 534.256 163.628 534.074 162.521 534.134L155.021 518.534L144.421 520.776L155.323 542.658C155.548 544.509 156.444 546.213 157.842 547.447C159.24 548.681 161.043 549.36 162.909 549.355C164.774 549.35 166.573 548.662 167.965 547.42C169.356 546.178 170.243 544.47 170.458 542.618H170.458Z" fill="#FFB7B7"/>
<path d="M7.62665 723.747L16.4485 728.259L38.0614 696.404L25.0408 689.747L7.62665 723.747Z" fill="#FFB7B7"/>
<path d="M6.85089 719.719L24.2246 728.603L24.2253 728.603C27.1616 730.105 29.3806 732.711 30.3942 735.847C31.4079 738.984 31.1332 742.394 29.6306 745.328L29.4465 745.688L1.00061 731.142L6.85089 719.719Z" fill="#2F2E41"/>
<path d="M109.517 736.089H119.427L124.141 697.893L109.515 697.895L109.517 736.089Z" fill="#FFB7B7"/>
<path d="M106.989 732.856L126.505 732.855H126.506C129.805 732.855 132.968 734.165 135.301 736.495C137.633 738.826 138.944 741.987 138.944 745.283V745.686L106.989 745.688L106.989 732.856Z" fill="#2F2E41"/>
<path d="M63.1613 424.545C63.1613 424.545 56.525 419.465 56.525 431.874L55.4772 472.882L67.178 511.621L73.9889 499.057L71.1947 471.835L63.1613 424.545Z" fill="#2196F3"/>
<path d="M134.15 536.709C134.15 536.709 141.846 574.156 132.098 604.888L126.711 723.047L106.96 721.509L100.034 633.851L93.3643 590.278L79.5125 630.006L33.8529 714.076L12.8187 697.672C12.8187 697.672 36.128 634.122 53.348 620.779L61.9844 522.492L134.15 536.709Z" fill="#2F2E41"/>
<path d="M110.737 374.479C123.176 374.479 133.259 364.404 133.259 351.975C133.259 339.547 123.176 329.472 110.737 329.472C98.2994 329.472 88.2164 339.547 88.2164 351.975C88.2164 364.404 98.2994 374.479 110.737 374.479Z" fill="#FFB8B8"/>
<path d="M109.144 356.748C111.843 357.099 113.88 354.339 114.824 351.788C115.769 349.237 116.489 346.266 118.836 344.888C122.043 343.005 126.146 345.27 129.813 344.649C133.954 343.947 136.647 339.562 136.858 335.37C137.069 331.178 135.399 327.146 133.761 323.281L133.189 328.085C133.266 326.457 132.923 324.836 132.194 323.379C131.464 321.921 130.373 320.675 129.024 319.759L129.761 326.807C129.604 325.835 129.257 324.903 128.738 324.065C128.22 323.227 127.542 322.5 126.741 321.925C125.941 321.35 125.035 320.938 124.075 320.714C123.116 320.489 122.121 320.457 121.149 320.617L121.265 324.817C116.5 324.083 111.672 323.847 106.859 324.112C102.013 324.392 97.3757 326.177 93.5945 329.219C88.1556 333.941 86.1693 341.717 86.8361 348.886C87.503 356.055 90.4646 362.789 93.5513 369.295C94.3279 370.932 95.402 372.779 97.2029 372.987C98.0193 372.999 98.8164 372.738 99.4685 372.247C100.121 371.756 100.591 371.062 100.805 370.275C101.192 368.687 101.177 367.027 100.761 365.446C100.123 363.065 99.9199 360.59 100.16 358.138C100.588 355.717 102.331 353.324 104.774 353.027C107.216 352.731 109.716 355.521 108.542 357.681L109.144 356.748Z" fill="#2F2E41"/>
<path d="M89.1825 382.665L93.8977 376.124C93.8977 376.124 99.1681 377.914 113.283 384.934L114.28 391.062L138.78 541.635L94.247 539.716L82.1199 539.458L73.2575 539.27L61.4149 539.018L61.2403 495.742L65.0823 462.587L59.1446 431.351C59.1446 431.351 51.6729 402.668 80.4505 387.202L89.1825 382.665Z" fill="#2196F3"/>
<path d="M150.901 534.607L152.519 540.262L163.835 532.896L159.564 528.013L150.901 534.607Z" fill="#CBCBCB"/>
<path d="M97.6062 400.864C97.6062 400.864 115.149 378.486 125.751 403.427L129.094 429.564C129.094 429.564 141.939 462.053 142.325 475.197C142.325 475.197 151.033 492.353 150.953 501.363L163.835 530.504L150.623 538.701L114.056 482.678L97.6062 400.864Z" fill="#2196F3"/>
</g>
<defs>
<clipPath id="clip0_4:124">
<rect width="592" height="883" fill="white"/>
</clipPath>
</defs>
</svg>
